<?xml version="1.0" encoding="UTF-8" standalone="no"?><svg xmlns="http://www.w3.org/2000/svg" xmlns:xlink="http://www.w3.org/1999/xlink" contentScriptType="text/ecmascript" fill="#000000" width="63.7" zoomAndPan="magnify" contentStyleType="text/css" viewBox="0.0 3.9 63.7 56.2" height="56.2" preserveAspectRatio="xMidYMid meet" version="1"><g><g id="change1_1"><path fill="inherit" d="M39,26h2v2h2v-7c0-0.6-0.4-1-1-1h-4c-0.6,0-1,0.4-1,1v7h2V26z M41,22v2h-2v-2H41z"/><path fill="inherit" d="M49 26L48 26 48 22 49 22 49 20 45 20 45 22 46 22 46 26 45 26 45 28 49 28z"/><path fill="inherit" d="M62.9,19.4c0.5-0.2,0.8-0.8,0.6-1.3l-1.4-3.5c-0.1-0.2-0.3-0.4-0.5-0.6c-0.2-0.1-0.5-0.1-0.8,0c-1.1,0.4-2.3,0.1-2.9-0.8 C57,12,56,11,54.8,10c-0.8-0.7-1.1-1.8-0.6-2.8c0.1-0.2,0.1-0.5,0-0.8S53.9,6,53.7,5.8l-3.5-1.5c-0.5-0.2-1.1,0-1.3,0.5 c-0.5,1-1.6,1.6-2.7,1.5c-1.5-0.2-3-0.2-4.5-0.1c-1.1,0.1-2.2-0.5-2.6-1.5c-0.2-0.5-0.8-0.8-1.3-0.6l-3.6,1.4 c-0.2,0.1-0.4,0.3-0.6,0.5c-0.1,0.2-0.1,0.5,0,0.8c0.4,1,0,2.2-0.9,2.9c-1.2,0.9-2.3,1.9-3.3,3.1c-0.7,0.9-2,1.2-3,0.7 c-0.5-0.2-1.1,0-1.3,0.5l-1.6,3.5c-0.1,0.2-0.1,0.5,0,0.8c0.1,0.3,0.3,0.5,0.5,0.6c0.6,0.3,1.1,0.8,1.3,1.4l1.9-0.6 c-0.3-0.9-0.8-1.6-1.6-2.1l0.9-1.9c1.6,0.3,3.3-0.3,4.4-1.6c0.9-1,1.8-1.9,2.9-2.7c1.4-1,2-2.6,1.8-4.2l2-0.8 c0.9,1.3,2.5,2.1,4.2,1.9c1.3-0.1,2.7-0.1,4,0.1c1.7,0.2,3.3-0.5,4.3-1.8L52,7.3c-0.3,1.6,0.2,3.2,1.5,4.3c1.1,0.8,2,1.8,2.8,2.9 c1,1.3,2.7,2,4.3,1.7l0.7,1.9c-1.4,0.9-2.2,2.5-2,4.2c0.1,1.3,0.1,2.6-0.1,4c-0.3,1.6,0.4,3.3,1.7,4.2l-0.8,1.8 c-1.6-0.3-3.3,0.3-4.4,1.6c-0.9,1-1.9,2-2.9,2.8c-1.4,1-2,2.6-1.8,4.2l-2,0.8c-0.9-1.3-2.5-2.1-4.2-1.9c-1.4,0.1-2.7,0.1-4.1-0.1 c-1.6-0.2-3.3,0.5-4.2,1.8l-1.9-0.8c0.3-1.6-0.3-3.3-1.6-4.3c-1-0.8-1.9-1.8-2.7-2.8c-1-1.3-2.7-2-4.3-1.7l-0.7-1.9 c0.5-0.3,0.9-0.8,1.3-1.3l-1.7-1.1c-0.3,0.4-0.7,0.8-1.2,1c-0.2,0.1-0.4,0.3-0.6,0.5c-0.1,0.2-0.1,0.5,0,0.8l1.4,3.5 c0.2,0.5,0.8,0.8,1.3,0.6c1.1-0.4,2.3-0.1,2.9,0.8c0.9,1.2,1.9,2.2,3.1,3.2c0.9,0.7,1.2,1.9,0.7,2.9c-0.1,0.2-0.1,0.5,0,0.8 c0.1,0.3,0.3,0.5,0.5,0.6l3.5,1.5c0.5,0.2,1.1-0.1,1.3-0.6c0.5-1,1.5-1.6,2.6-1.4c1.5,0.2,3.1,0.2,4.6,0.1 c1.1-0.1,2.2,0.5,2.6,1.5c0.1,0.2,0.3,0.4,0.5,0.6c0.1,0.1,0.3,0.1,0.4,0.1c0.1,0,0.2,0,0.4-0.1l3.6-1.4c0.5-0.2,0.8-0.8,0.6-1.3 c-0.4-1,0-2.2,0.9-2.9c1.2-0.9,2.3-1.9,3.3-3.1c0.7-0.9,1.9-1.2,2.9-0.7c0.5,0.2,1.1,0,1.4-0.5l1.6-3.4c0.1-0.2,0.1-0.6,0-0.8 c-0.1-0.3-0.3-0.5-0.6-0.6c-1-0.4-1.6-1.5-1.4-2.5c0.2-1.5,0.3-3,0.2-4.5C61.2,20.9,61.9,19.9,62.9,19.4z"/><path fill="inherit" d="M43,36c6.6,0,12-5.4,12-12s-5.4-12-12-12s-12,5.4-12,12S36.4,36,43,36z M43,14c5.5,0,10,4.5,10,10s-4.5,10-10,10 s-10-4.5-10-10S37.5,14,43,14z"/><path fill="inherit" d="M41 48H54V50H41z"/><path fill="inherit" d="M37 48H39V50H37z"/><path fill="inherit" d="M48 54H61V56H48z"/><path fill="inherit" d="M44 54H46V56H44z"/><path fill="inherit" d="M34 58H47V60H34z"/><path fill="inherit" d="M30 58H32V60H30z"/><path fill="inherit" d="M18 21H20V23H18z"/><path fill="inherit" d="M22 21H29V23H22z"/><path fill="inherit" d="M14 25H16V27H14z"/><path fill="inherit" d="M18 25H29V27H18z"/><path fill="inherit" d="M35.1,45.5c-2,3.4-1.2,5.3-0.9,5.9l1.9,5l1.9-0.7l-2-5.1c0-0.1,0-0.1-0.1-0.2c0,0-0.6-1.2,0.9-3.9L35.1,45.5z"/><path fill="inherit" d="M17.8,53c-1.7-0.8-4.9-0.6-9.5,0.7c-0.3,0.1-1.3,0.1-1.7-0.3c-0.4-0.4-0.4-1.4,0-2.8c0.3-0.7,0.5-2.2-0.9-3.3 c0.1-0.1,0.2-0.1,0.3-0.2c0.4-0.2,0.7-0.6,0.6-1.1c-0.1-0.5-0.4-0.8-0.9-0.8c-0.3,0-0.6-0.1-0.8-0.2c0.1-0.1,0.1-0.3,0.2-0.4 c0.2-0.4,0.5-0.9,0.4-1.5c-0.1-0.8-0.7-1.5-1.6-1.7c-1.4-0.4-2-0.8-2-0.9c0,0,0-0.2,0.5-0.6c2.2-1.8,3.5-4,4.1-5.1 c0.3-0.6,0.4-1.3,0.3-2c-0.5-4.2,3.5-12.4,13.2-13.6l-0.2-2C8.3,18.6,4.4,28.3,5,33c0,0.3,0,0.6-0.1,0.9c-0.5,1-1.6,2.9-3.5,4.5 c-1,0.8-1.4,1.7-1.2,2.6c0.2,1.1,1.4,2,3.6,2.5c0,0.1-0.1,0.2-0.2,0.3c-0.1,0.2-0.3,0.5-0.4,1c-0.2,0.5-0.1,1,0.2,1.4 c0.1,0.2,0.3,0.4,0.5,0.5c-0.1,0.2-0.2,0.4-0.2,0.6c0,0.4,0,1,0.9,1.6c0.5,0.3,0.5,0.7,0.4,1c0,0,0,0.1-0.1,0.1 c-0.6,2.2-0.5,3.8,0.4,4.8c1.3,1.4,3.4,1,3.7,0.9c5.8-1.6,7.7-1.1,8.1-0.8c0,0,2.8,1.3,2.6,4.2c0,0.3,0.1,0.5,0.3,0.7 c0.2,0.2,0.5,0.3,0.7,0.3H28v-2h-6.4C21.2,54.5,17.9,53,17.8,53z"/></g></g></svg>